<?xml version="1.0" encoding="utf-8"?>
<!-- Generator: Adobe Illustrator 24.3.0, SVG Export Plug-In . SVG Version: 6.00 Build 0)  -->
<svg version="1.1" id="Capa_1" xmlns="http://www.w3.org/2000/svg" xmlns:xlink="http://www.w3.org/1999/xlink" x="0px" y="0px"
	 viewBox="0 0 1080 1080" style="enable-background:new 0 0 1080 1080;" xml:space="preserve">
<style type="text/css">
	.st0{fill:#2A3884;}
	.st1{fill:#727172;}
	.st2{fill:#8F3292;}
	.st3{fill:#EA2025;}
	.st4{fill:#931B4C;}
	.st5{fill:#35A84A;}
	.st6{fill:#357B3C;}
	.st7{fill:#F59B20;}
</style>
<g>
	<path class="st2" d="M821.37,536.66c-5.17,0-30.57-0.89-53.38-16.52c20.03,28.79,50.06,47.13,83.52,47.13c0,0,0,0,0.04,0
		c32.81,0,53.65-18.49,65.34-33.96c15.05-19.92,20.49-41.57,20.49-51.26v-45.74c0.04-0.93,0.31-5.25,0.77-9.57h-26.01
		c-8.57,0-36.59,4.59-36.59,63.45h-0.31c-1,10.73-5.17,20.34-12.35,28.1c-12.12,13.08-29.56,18.06-40.8,18.33
		C822.06,536.66,821.79,536.66,821.37,536.66z M920.37,436.24c4.44,0,8.03,3.59,8.03,8.03c0,4.44-3.59,8.03-8.03,8.03
		s-8.03-3.59-8.03-8.03C912.34,439.83,915.93,436.24,920.37,436.24z"/>
	<path class="st2" d="M835.26,445.89h-92.55c0.39,5.79,1.04,11.46,2.05,16.98h61.06c3.2,0,5.79,2.59,5.79,5.79
		c0,3.2-2.59,5.79-5.79,5.79h-58.32c2.08,5.71,4.59,10.77,7.41,15.25h50.91c3.2,0,5.79,2.59,5.79,5.79s-2.59,5.79-5.79,5.79
		h-41.88c23.23,24.2,55.93,23.85,58.01,23.81c9.69-0.23,23.51-4.86,32.58-14.63c6.87-7.41,10.04-16.71,9.49-27.63
		C862.16,447.12,838,445.89,835.26,445.89z"/>
	<path class="st2" d="M920.67,444.27c0-0.19-0.15-0.31-0.31-0.31c-0.19,0-0.31,0.15-0.31,0.31
		C920.06,444.61,920.67,444.61,920.67,444.27z"/>
	<path class="st2" d="M868.3,310.8c-70.79,0-128.83,54.3-134.89,123.51H835.3l0,0c0.42,0,21.58,0.27,33.12,20.49
		c10.58-37.28,37.4-39.64,43.85-39.64h34.66c-0.19-0.08-0.42-0.15-0.62-0.31c-2.97-2.12-29.02-21-30.22-35.12
		c-0.58-6.64,3.24-12.16,9.76-14.09c6.64-1.93,15.94,0.19,22.69,8.65c6.79-8.49,16.06-10.61,22.69-8.65
		c6.48,1.89,10.31,7.41,9.76,14.09c-1.2,14.13-27.25,33.04-30.22,35.12c-0.19,0.12-0.39,0.19-0.62,0.31h2.24l-1.78,7.18
		c-0.73,2.89-1.35,10.31-1.58,14.28v45.43c0,13.47-7.14,37.48-22.85,58.24c-13.28,17.6-37.01,38.56-74.57,38.56h-0.04
		c-5.98,0-11.89-0.54-17.64-1.58c11,2.89,22.54,4.44,34.43,4.44c74.8,0,135.47-60.63,135.47-135.47S943.1,310.8,868.3,310.8z"/>
	<path class="st2" d="M973.24,379.08c0.35-4.05-2.51-5.48-4.25-6.02c-5.09-1.51-12.62,1.51-17.14,10.11
		c-1.35,2.55-5.52,2.55-6.83,0c-3.78-7.22-9.65-10.46-14.47-10.46c-0.93,0-1.81,0.12-2.66,0.35c-1.74,0.5-4.59,1.97-4.25,6.02
		c0.66,7.41,14.71,20.34,24.78,27.87C958.54,399.38,972.63,386.49,973.24,379.08z"/>
</g>
</svg>
